<svg width="507" height="386" viewBox="0 0 507 386" fill="none" xmlns="http://www.w3.org/2000/svg">
<rect width="507" height="386" fill="white"/>
<circle cx="258.5" cy="53.5" r="22.5" fill="#C4C4C4"/>
<circle cx="181.5" cy="139.5" r="22.5" fill="#C4C4C4"/>
<circle cx="124.5" cy="241.5" r="22.5" fill="#C4C4C4"/>
<circle cx="205.5" cy="241.5" r="22.5" fill="#C4C4C4"/>
<circle cx="320.5" cy="241.5" r="22.5" fill="#C4C4C4"/>
<circle cx="289.5" cy="138.5" r="22.5" fill="#C4C4C4"/>
<circle cx="390.5" cy="138.5" r="22.5" fill="#C4C4C4"/>
<path d="M237.499 75.9431C237.467 75.1152 236.771 74.4696 235.943 74.5011L222.453 75.0134C221.625 75.0448 220.979 75.7414 221.011 76.5692C221.042 77.397 221.739 78.0426 222.567 78.0112L234.558 77.5558L235.013 89.5472C235.045 90.375 235.741 91.0206 236.569 90.9892C237.397 90.9578 238.043 90.2612 238.011 89.4334L237.499 75.9431ZM199.1 118.02L237.1 77.0196L234.9 74.9804L196.9 115.98L199.1 118.02Z" fill="black"/>
<path d="M170.419 160.604C170.2 159.805 169.375 159.334 168.576 159.553L155.555 163.118C154.756 163.337 154.286 164.162 154.505 164.961C154.724 165.76 155.549 166.231 156.348 166.012L167.922 162.843L171.091 174.417C171.309 175.216 172.134 175.686 172.933 175.468C173.732 175.249 174.203 174.424 173.984 173.625L170.419 160.604ZM136.303 221.332L170.275 161.743L167.669 160.257L133.697 219.846L136.303 221.332Z" fill="black"/>
<path d="M267.661 74.6535C266.917 74.2884 266.019 74.5953 265.653 75.339L259.704 87.4575C259.339 88.2012 259.646 89.0999 260.39 89.465C261.134 89.8301 262.032 89.5232 262.397 88.7795L267.685 78.0075L278.458 83.2956C279.201 83.6607 280.1 83.3537 280.465 82.6101C280.83 81.8664 280.523 80.9677 279.78 80.6026L267.661 74.6535ZM282.42 116.515L268.42 75.5153L265.58 76.4847L279.58 117.485L282.42 116.515Z" fill="black"/>
<path d="M189.725 165.687C189 165.286 188.087 165.55 187.687 166.275L181.161 178.093C180.76 178.818 181.023 179.73 181.749 180.131C182.474 180.531 183.386 180.268 183.787 179.543L189.588 169.038L200.093 174.839C200.818 175.24 201.73 174.977 202.131 174.251C202.531 173.526 202.268 172.614 201.543 172.213L189.725 165.687ZM205.441 218.584L190.441 166.584L187.559 167.416L202.559 219.416L205.441 218.584Z" fill="black"/>
<path d="M295.282 161.668C294.527 161.326 293.638 161.66 293.296 162.415L287.725 174.712C287.383 175.466 287.717 176.355 288.472 176.697C289.226 177.039 290.115 176.704 290.457 175.95L295.41 165.019L306.34 169.972C307.095 170.314 307.984 169.979 308.325 169.225C308.667 168.47 308.333 167.581 307.578 167.239L295.282 161.668ZM316.741 217.438L296.066 162.506L293.259 163.562L313.934 218.494L316.741 217.438Z" fill="black"/>
<path d="M283.855 53.8211C283.037 53.9483 282.476 54.7151 282.603 55.5337L284.677 68.8735C284.804 69.6921 285.571 70.2526 286.389 70.1254C287.208 69.9981 287.768 69.2314 287.641 68.4128L285.798 56.5551L297.656 54.7122C298.474 54.585 299.035 53.8182 298.908 52.9996C298.78 52.181 298.014 51.6206 297.195 51.7478L283.855 53.8211ZM375.8 120.486L284.971 54.0923L283.2 56.5143L374.029 122.908L375.8 120.486Z" fill="black"/>
<path d="M262.156 57.4844H255.992L254.82 61H251.082L257.434 43.9375H260.691L267.078 61H263.34L262.156 57.4844ZM256.941 54.6367H261.207L259.062 48.25L256.941 54.6367Z" fill="black"/>
<path d="M174.523 147V129.938H180.5C182.57 129.938 184.141 130.336 185.211 131.133C186.281 131.922 186.816 133.082 186.816 134.613C186.816 135.449 186.602 136.188 186.172 136.828C185.742 137.461 185.145 137.926 184.379 138.223C185.254 138.441 185.941 138.883 186.441 139.547C186.949 140.211 187.203 141.023 187.203 141.984C187.203 143.625 186.68 144.867 185.633 145.711C184.586 146.555 183.094 146.984 181.156 147H174.523ZM178.039 139.57V144.176H181.051C181.879 144.176 182.523 143.98 182.984 143.59C183.453 143.191 183.688 142.645 183.688 141.949C183.688 140.387 182.879 139.594 181.262 139.57H178.039ZM178.039 137.086H180.641C182.414 137.055 183.301 136.348 183.301 134.965C183.301 134.191 183.074 133.637 182.621 133.301C182.176 132.957 181.469 132.785 180.5 132.785H178.039V137.086Z" fill="black"/>
<path d="M127.789 241.605H121.039V246.176H128.961V249H117.523V231.938H128.938V234.785H121.039V238.852H127.789V241.605Z" fill="black"/>
<path d="M209.789 242.027H203.039V249H199.523V231.938H210.633V234.785H203.039V239.191H209.789V242.027Z" fill="black"/>
<path d="M329.023 246.844C328.391 247.602 327.496 248.191 326.34 248.613C325.184 249.027 323.902 249.234 322.496 249.234C321.02 249.234 319.723 248.914 318.605 248.273C317.496 247.625 316.637 246.688 316.027 245.461C315.426 244.234 315.117 242.793 315.102 241.137V239.977C315.102 238.273 315.387 236.801 315.957 235.559C316.535 234.309 317.363 233.355 318.441 232.699C319.527 232.035 320.797 231.703 322.25 231.703C324.273 231.703 325.855 232.188 326.996 233.156C328.137 234.117 328.812 235.52 329.023 237.363H325.602C325.445 236.387 325.098 235.672 324.559 235.219C324.027 234.766 323.293 234.539 322.355 234.539C321.16 234.539 320.25 234.988 319.625 235.887C319 236.785 318.684 238.121 318.676 239.895V240.984C318.676 242.773 319.016 244.125 319.695 245.039C320.375 245.953 321.371 246.41 322.684 246.41C324.004 246.41 324.945 246.129 325.508 245.566V242.625H322.309V240.035H329.023V246.844Z" fill="black"/>
<path d="M296.918 140.316C296.785 142.152 296.105 143.598 294.879 144.652C293.66 145.707 292.051 146.234 290.051 146.234C287.863 146.234 286.141 145.5 284.883 144.031C283.633 142.555 283.008 140.531 283.008 137.961V136.918C283.008 135.277 283.297 133.832 283.875 132.582C284.453 131.332 285.277 130.375 286.348 129.711C287.426 129.039 288.676 128.703 290.098 128.703C292.066 128.703 293.652 129.23 294.855 130.285C296.059 131.34 296.754 132.82 296.941 134.727H293.426C293.34 133.625 293.031 132.828 292.5 132.336C291.977 131.836 291.176 131.586 290.098 131.586C288.926 131.586 288.047 132.008 287.461 132.852C286.883 133.688 286.586 134.988 286.57 136.754V138.043C286.57 139.887 286.848 141.234 287.402 142.086C287.965 142.938 288.848 143.363 290.051 143.363C291.137 143.363 291.945 143.117 292.477 142.625C293.016 142.125 293.324 141.355 293.402 140.316H296.918Z" fill="black"/>
<path d="M384.523 146V128.938H389.773C391.273 128.938 392.613 129.277 393.793 129.957C394.98 130.629 395.906 131.59 396.57 132.84C397.234 134.082 397.566 135.496 397.566 137.082V137.867C397.566 139.453 397.238 140.863 396.582 142.098C395.934 143.332 395.016 144.289 393.828 144.969C392.641 145.648 391.301 145.992 389.809 146H384.523ZM388.039 131.785V143.176H389.738C391.113 143.176 392.164 142.727 392.891 141.828C393.617 140.93 393.988 139.645 394.004 137.973V137.07C394.004 135.336 393.645 134.023 392.926 133.133C392.207 132.234 391.156 131.785 389.773 131.785H388.039Z" fill="black"/>
</svg>
