<svg width="976" height="599" viewBox="0 0 976 599" fill="none" xmlns="http://www.w3.org/2000/svg">
<rect width="976" height="599" fill="white"/>
<rect x="314.5" y="89.5" width="43" height="43" fill="#C4C4C4" stroke="black"/>
<rect x="358.5" y="89.5" width="43" height="43" fill="#C4C4C4" stroke="black"/>
<rect x="402.5" y="89.5" width="43" height="43" fill="#C4C4C4" stroke="black"/>
<rect x="446.5" y="89.5" width="43" height="43" fill="#C4C4C4" stroke="black"/>
<rect x="490.5" y="89.5" width="43" height="43" fill="#C4C4C4" stroke="black"/>
<rect x="534.5" y="89.5" width="43" height="43" fill="#C4C4C4" stroke="black"/>
<rect x="578.5" y="89.5" width="43" height="43" fill="#C4C4C4" stroke="black"/>
<rect x="622.5" y="89.5" width="43" height="43" fill="#C4C4C4" stroke="black"/>
<path d="M330.664 110.609L331.648 101.938H341.211V104.762H334.426L334.004 108.43C334.809 108 335.664 107.785 336.57 107.785C338.195 107.785 339.469 108.289 340.391 109.297C341.312 110.305 341.773 111.715 341.773 113.527C341.773 114.629 341.539 115.617 341.07 116.492C340.609 117.359 339.945 118.035 339.078 118.52C338.211 118.996 337.188 119.234 336.008 119.234C334.977 119.234 334.02 119.027 333.137 118.613C332.254 118.191 331.555 117.602 331.039 116.844C330.531 116.086 330.262 115.223 330.23 114.254H333.582C333.652 114.965 333.898 115.52 334.32 115.918C334.75 116.309 335.309 116.504 335.996 116.504C336.762 116.504 337.352 116.23 337.766 115.684C338.18 115.129 338.387 114.348 338.387 113.34C338.387 112.371 338.148 111.629 337.672 111.113C337.195 110.598 336.52 110.34 335.645 110.34C334.84 110.34 334.188 110.551 333.688 110.973L333.359 111.277L330.664 110.609Z" fill="black"/>
<path d="M377.605 108.969H379.41C380.27 108.969 380.906 108.754 381.32 108.324C381.734 107.895 381.941 107.324 381.941 106.613C381.941 105.926 381.734 105.391 381.32 105.008C380.914 104.625 380.352 104.434 379.633 104.434C378.984 104.434 378.441 104.613 378.004 104.973C377.566 105.324 377.348 105.785 377.348 106.355H373.961C373.961 105.465 374.199 104.668 374.676 103.965C375.16 103.254 375.832 102.699 376.691 102.301C377.559 101.902 378.512 101.703 379.551 101.703C381.355 101.703 382.77 102.137 383.793 103.004C384.816 103.863 385.328 105.051 385.328 106.566C385.328 107.348 385.09 108.066 384.613 108.723C384.137 109.379 383.512 109.883 382.738 110.234C383.699 110.578 384.414 111.094 384.883 111.781C385.359 112.469 385.598 113.281 385.598 114.219C385.598 115.734 385.043 116.949 383.934 117.863C382.832 118.777 381.371 119.234 379.551 119.234C377.848 119.234 376.453 118.785 375.367 117.887C374.289 116.988 373.75 115.801 373.75 114.324H377.137C377.137 114.965 377.375 115.488 377.852 115.895C378.336 116.301 378.93 116.504 379.633 116.504C380.438 116.504 381.066 116.293 381.52 115.871C381.98 115.441 382.211 114.875 382.211 114.172C382.211 112.469 381.273 111.617 379.398 111.617H377.605V108.969Z" fill="black"/>
<path d="M429.281 106.473C429.281 107.301 429.074 108.035 428.66 108.676C428.246 109.316 427.676 109.828 426.949 110.211C427.777 110.609 428.434 111.16 428.918 111.863C429.402 112.559 429.645 113.379 429.645 114.324C429.645 115.84 429.129 117.039 428.098 117.922C427.066 118.797 425.664 119.234 423.891 119.234C422.117 119.234 420.711 118.793 419.672 117.91C418.633 117.027 418.113 115.832 418.113 114.324C418.113 113.379 418.355 112.555 418.84 111.852C419.324 111.148 419.977 110.602 420.797 110.211C420.07 109.828 419.5 109.316 419.086 108.676C418.68 108.035 418.477 107.301 418.477 106.473C418.477 105.02 418.961 103.863 419.93 103.004C420.898 102.137 422.215 101.703 423.879 101.703C425.535 101.703 426.848 102.133 427.816 102.992C428.793 103.844 429.281 105.004 429.281 106.473ZM426.246 114.078C426.246 113.336 426.031 112.742 425.602 112.297C425.172 111.852 424.594 111.629 423.867 111.629C423.148 111.629 422.574 111.852 422.145 112.297C421.715 112.734 421.5 113.328 421.5 114.078C421.5 114.805 421.711 115.391 422.133 115.836C422.555 116.281 423.141 116.504 423.891 116.504C424.625 116.504 425.199 116.289 425.613 115.859C426.035 115.43 426.246 114.836 426.246 114.078ZM425.895 106.637C425.895 105.973 425.719 105.441 425.367 105.043C425.016 104.637 424.52 104.434 423.879 104.434C423.246 104.434 422.754 104.629 422.402 105.02C422.051 105.41 421.875 105.949 421.875 106.637C421.875 107.316 422.051 107.863 422.402 108.277C422.754 108.691 423.25 108.898 423.891 108.898C424.531 108.898 425.023 108.691 425.367 108.277C425.719 107.863 425.895 107.316 425.895 106.637Z" fill="black"/>
<path d="M470.387 119H467V105.945L462.957 107.199V104.445L470.023 101.914H470.387V119Z" fill="black"/>
<path d="M514.082 112.18C513.199 113.047 512.168 113.48 510.988 113.48C509.48 113.48 508.273 112.965 507.367 111.934C506.461 110.895 506.008 109.496 506.008 107.738C506.008 106.621 506.25 105.598 506.734 104.668C507.227 103.73 507.91 103.004 508.785 102.488C509.66 101.965 510.645 101.703 511.738 101.703C512.863 101.703 513.863 101.984 514.738 102.547C515.613 103.109 516.293 103.918 516.777 104.973C517.262 106.027 517.508 107.234 517.516 108.594V109.848C517.516 112.691 516.809 114.926 515.395 116.551C513.98 118.176 511.977 119.043 509.383 119.152L508.551 119.164V116.34L509.301 116.328C512.246 116.195 513.84 114.812 514.082 112.18ZM511.82 110.891C512.367 110.891 512.836 110.75 513.227 110.469C513.625 110.188 513.926 109.848 514.129 109.449V108.055C514.129 106.906 513.91 106.016 513.473 105.383C513.035 104.75 512.449 104.434 511.715 104.434C511.035 104.434 510.477 104.746 510.039 105.371C509.602 105.988 509.383 106.766 509.383 107.703C509.383 108.633 509.594 109.398 510.016 110C510.445 110.594 511.047 110.891 511.82 110.891Z" fill="black"/>
<path d="M550.664 110.609L551.648 101.938H561.211V104.762H554.426L554.004 108.43C554.809 108 555.664 107.785 556.57 107.785C558.195 107.785 559.469 108.289 560.391 109.297C561.312 110.305 561.773 111.715 561.773 113.527C561.773 114.629 561.539 115.617 561.07 116.492C560.609 117.359 559.945 118.035 559.078 118.52C558.211 118.996 557.188 119.234 556.008 119.234C554.977 119.234 554.02 119.027 553.137 118.613C552.254 118.191 551.555 117.602 551.039 116.844C550.531 116.086 550.262 115.223 550.23 114.254H553.582C553.652 114.965 553.898 115.52 554.32 115.918C554.75 116.309 555.309 116.504 555.996 116.504C556.762 116.504 557.352 116.23 557.766 115.684C558.18 115.129 558.387 114.348 558.387 113.34C558.387 112.371 558.148 111.629 557.672 111.113C557.195 110.598 556.52 110.34 555.645 110.34C554.84 110.34 554.188 110.551 553.688 110.973L553.359 111.277L550.664 110.609Z" fill="black"/>
<path d="M594.664 110.609L595.648 101.938H605.211V104.762H598.426L598.004 108.43C598.809 108 599.664 107.785 600.57 107.785C602.195 107.785 603.469 108.289 604.391 109.297C605.312 110.305 605.773 111.715 605.773 113.527C605.773 114.629 605.539 115.617 605.07 116.492C604.609 117.359 603.945 118.035 603.078 118.52C602.211 118.996 601.188 119.234 600.008 119.234C598.977 119.234 598.02 119.027 597.137 118.613C596.254 118.191 595.555 117.602 595.039 116.844C594.531 116.086 594.262 115.223 594.23 114.254H597.582C597.652 114.965 597.898 115.52 598.32 115.918C598.75 116.309 599.309 116.504 599.996 116.504C600.762 116.504 601.352 116.23 601.766 115.684C602.18 115.129 602.387 114.348 602.387 113.34C602.387 112.371 602.148 111.629 601.672 111.113C601.195 110.598 600.52 110.34 599.645 110.34C598.84 110.34 598.188 110.551 597.688 110.973L597.359 111.277L594.664 110.609Z" fill="black"/>
<path d="M647.348 101.762V104.551H647.02C645.488 104.574 644.254 104.973 643.316 105.746C642.387 106.52 641.828 107.594 641.641 108.969C642.547 108.047 643.691 107.586 645.074 107.586C646.559 107.586 647.738 108.117 648.613 109.18C649.488 110.242 649.926 111.641 649.926 113.375C649.926 114.484 649.684 115.488 649.199 116.387C648.723 117.285 648.043 117.984 647.16 118.484C646.285 118.984 645.293 119.234 644.184 119.234C642.387 119.234 640.934 118.609 639.824 117.359C638.723 116.109 638.172 114.441 638.172 112.355V111.137C638.172 109.285 638.52 107.652 639.215 106.238C639.918 104.816 640.922 103.719 642.227 102.945C643.539 102.164 645.059 101.77 646.785 101.762H647.348ZM644.043 110.305C643.496 110.305 643 110.449 642.555 110.738C642.109 111.02 641.781 111.395 641.57 111.863V112.895C641.57 114.027 641.793 114.914 642.238 115.555C642.684 116.188 643.309 116.504 644.113 116.504C644.84 116.504 645.426 116.219 645.871 115.648C646.324 115.07 646.551 114.324 646.551 113.41C646.551 112.48 646.324 111.73 645.871 111.16C645.418 110.59 644.809 110.305 644.043 110.305Z" fill="black"/>
<rect x="275.5" y="406.5" width="43" height="43" fill="#C4C4C4" stroke="black"/>
<path d="M302.281 423.473C302.281 424.301 302.074 425.035 301.66 425.676C301.246 426.316 300.676 426.828 299.949 427.211C300.777 427.609 301.434 428.16 301.918 428.863C302.402 429.559 302.645 430.379 302.645 431.324C302.645 432.84 302.129 434.039 301.098 434.922C300.066 435.797 298.664 436.234 296.891 436.234C295.117 436.234 293.711 435.793 292.672 434.91C291.633 434.027 291.113 432.832 291.113 431.324C291.113 430.379 291.355 429.555 291.84 428.852C292.324 428.148 292.977 427.602 293.797 427.211C293.07 426.828 292.5 426.316 292.086 425.676C291.68 425.035 291.477 424.301 291.477 423.473C291.477 422.02 291.961 420.863 292.93 420.004C293.898 419.137 295.215 418.703 296.879 418.703C298.535 418.703 299.848 419.133 300.816 419.992C301.793 420.844 302.281 422.004 302.281 423.473ZM299.246 431.078C299.246 430.336 299.031 429.742 298.602 429.297C298.172 428.852 297.594 428.629 296.867 428.629C296.148 428.629 295.574 428.852 295.145 429.297C294.715 429.734 294.5 430.328 294.5 431.078C294.5 431.805 294.711 432.391 295.133 432.836C295.555 433.281 296.141 433.504 296.891 433.504C297.625 433.504 298.199 433.289 298.613 432.859C299.035 432.43 299.246 431.836 299.246 431.078ZM298.895 423.637C298.895 422.973 298.719 422.441 298.367 422.043C298.016 421.637 297.52 421.434 296.879 421.434C296.246 421.434 295.754 421.629 295.402 422.02C295.051 422.41 294.875 422.949 294.875 423.637C294.875 424.316 295.051 424.863 295.402 425.277C295.754 425.691 296.25 425.898 296.891 425.898C297.531 425.898 298.023 425.691 298.367 425.277C298.719 424.863 298.895 424.316 298.895 423.637Z" fill="black"/>
<rect x="212.5" y="479.5" width="43" height="43" fill="#C4C4C4" stroke="black"/>
<path d="M228.664 500.609L229.648 491.938H239.211V494.762H232.426L232.004 498.43C232.809 498 233.664 497.785 234.57 497.785C236.195 497.785 237.469 498.289 238.391 499.297C239.312 500.305 239.773 501.715 239.773 503.527C239.773 504.629 239.539 505.617 239.07 506.492C238.609 507.359 237.945 508.035 237.078 508.52C236.211 508.996 235.188 509.234 234.008 509.234C232.977 509.234 232.02 509.027 231.137 508.613C230.254 508.191 229.555 507.602 229.039 506.844C228.531 506.086 228.262 505.223 228.23 504.254H231.582C231.652 504.965 231.898 505.52 232.32 505.918C232.75 506.309 233.309 506.504 233.996 506.504C234.762 506.504 235.352 506.23 235.766 505.684C236.18 505.129 236.387 504.348 236.387 503.34C236.387 502.371 236.148 501.629 235.672 501.113C235.195 500.598 234.52 500.34 233.645 500.34C232.84 500.34 232.188 500.551 231.688 500.973L231.359 501.277L228.664 500.609Z" fill="black"/>
<rect x="314.5" y="479.5" width="43" height="43" fill="#C4C4C4" stroke="black"/>
<path d="M333.605 498.969H335.41C336.27 498.969 336.906 498.754 337.32 498.324C337.734 497.895 337.941 497.324 337.941 496.613C337.941 495.926 337.734 495.391 337.32 495.008C336.914 494.625 336.352 494.434 335.633 494.434C334.984 494.434 334.441 494.613 334.004 494.973C333.566 495.324 333.348 495.785 333.348 496.355H329.961C329.961 495.465 330.199 494.668 330.676 493.965C331.16 493.254 331.832 492.699 332.691 492.301C333.559 491.902 334.512 491.703 335.551 491.703C337.355 491.703 338.77 492.137 339.793 493.004C340.816 493.863 341.328 495.051 341.328 496.566C341.328 497.348 341.09 498.066 340.613 498.723C340.137 499.379 339.512 499.883 338.738 500.234C339.699 500.578 340.414 501.094 340.883 501.781C341.359 502.469 341.598 503.281 341.598 504.219C341.598 505.734 341.043 506.949 339.934 507.863C338.832 508.777 337.371 509.234 335.551 509.234C333.848 509.234 332.453 508.785 331.367 507.887C330.289 506.988 329.75 505.801 329.75 504.324H333.137C333.137 504.965 333.375 505.488 333.852 505.895C334.336 506.301 334.93 506.504 335.633 506.504C336.438 506.504 337.066 506.293 337.52 505.871C337.98 505.441 338.211 504.875 338.211 504.172C338.211 502.469 337.273 501.617 335.398 501.617H333.605V498.969Z" fill="black"/>
<rect x="380.5" y="479.5" width="43" height="43" fill="#C4C4C4" stroke="black"/>
<path d="M407.281 496.473C407.281 497.301 407.074 498.035 406.66 498.676C406.246 499.316 405.676 499.828 404.949 500.211C405.777 500.609 406.434 501.16 406.918 501.863C407.402 502.559 407.645 503.379 407.645 504.324C407.645 505.84 407.129 507.039 406.098 507.922C405.066 508.797 403.664 509.234 401.891 509.234C400.117 509.234 398.711 508.793 397.672 507.91C396.633 507.027 396.113 505.832 396.113 504.324C396.113 503.379 396.355 502.555 396.84 501.852C397.324 501.148 397.977 500.602 398.797 500.211C398.07 499.828 397.5 499.316 397.086 498.676C396.68 498.035 396.477 497.301 396.477 496.473C396.477 495.02 396.961 493.863 397.93 493.004C398.898 492.137 400.215 491.703 401.879 491.703C403.535 491.703 404.848 492.133 405.816 492.992C406.793 493.844 407.281 495.004 407.281 496.473ZM404.246 504.078C404.246 503.336 404.031 502.742 403.602 502.297C403.172 501.852 402.594 501.629 401.867 501.629C401.148 501.629 400.574 501.852 400.145 502.297C399.715 502.734 399.5 503.328 399.5 504.078C399.5 504.805 399.711 505.391 400.133 505.836C400.555 506.281 401.141 506.504 401.891 506.504C402.625 506.504 403.199 506.289 403.613 505.859C404.035 505.43 404.246 504.836 404.246 504.078ZM403.895 496.637C403.895 495.973 403.719 495.441 403.367 495.043C403.016 494.637 402.52 494.434 401.879 494.434C401.246 494.434 400.754 494.629 400.402 495.02C400.051 495.41 399.875 495.949 399.875 496.637C399.875 497.316 400.051 497.863 400.402 498.277C400.754 498.691 401.25 498.898 401.891 498.898C402.531 498.898 403.023 498.691 403.367 498.277C403.719 497.863 403.895 497.316 403.895 496.637Z" fill="black"/>
<rect x="439.5" y="479.5" width="43" height="43" fill="#C4C4C4" stroke="black"/>
<path d="M463.387 509H460V495.945L455.957 497.199V494.445L463.023 491.914H463.387V509Z" fill="black"/>
<rect x="498.5" y="479.5" width="43" height="43" fill="#C4C4C4" stroke="black"/>
<path d="M522.082 502.18C521.199 503.047 520.168 503.48 518.988 503.48C517.48 503.48 516.273 502.965 515.367 501.934C514.461 500.895 514.008 499.496 514.008 497.738C514.008 496.621 514.25 495.598 514.734 494.668C515.227 493.73 515.91 493.004 516.785 492.488C517.66 491.965 518.645 491.703 519.738 491.703C520.863 491.703 521.863 491.984 522.738 492.547C523.613 493.109 524.293 493.918 524.777 494.973C525.262 496.027 525.508 497.234 525.516 498.594V499.848C525.516 502.691 524.809 504.926 523.395 506.551C521.98 508.176 519.977 509.043 517.383 509.152L516.551 509.164V506.34L517.301 506.328C520.246 506.195 521.84 504.812 522.082 502.18ZM519.82 500.891C520.367 500.891 520.836 500.75 521.227 500.469C521.625 500.188 521.926 499.848 522.129 499.449V498.055C522.129 496.906 521.91 496.016 521.473 495.383C521.035 494.75 520.449 494.434 519.715 494.434C519.035 494.434 518.477 494.746 518.039 495.371C517.602 495.988 517.383 496.766 517.383 497.703C517.383 498.633 517.594 499.398 518.016 500C518.445 500.594 519.047 500.891 519.82 500.891Z" fill="black"/>
<rect x="564.5" y="479.5" width="43" height="43" fill="#C4C4C4" stroke="black"/>
<path d="M580.664 500.609L581.648 491.938H591.211V494.762H584.426L584.004 498.43C584.809 498 585.664 497.785 586.57 497.785C588.195 497.785 589.469 498.289 590.391 499.297C591.312 500.305 591.773 501.715 591.773 503.527C591.773 504.629 591.539 505.617 591.07 506.492C590.609 507.359 589.945 508.035 589.078 508.52C588.211 508.996 587.188 509.234 586.008 509.234C584.977 509.234 584.02 509.027 583.137 508.613C582.254 508.191 581.555 507.602 581.039 506.844C580.531 506.086 580.262 505.223 580.23 504.254H583.582C583.652 504.965 583.898 505.52 584.32 505.918C584.75 506.309 585.309 506.504 585.996 506.504C586.762 506.504 587.352 506.23 587.766 505.684C588.18 505.129 588.387 504.348 588.387 503.34C588.387 502.371 588.148 501.629 587.672 501.113C587.195 500.598 586.52 500.34 585.645 500.34C584.84 500.34 584.188 500.551 583.688 500.973L583.359 501.277L580.664 500.609Z" fill="black"/>
<rect x="624.5" y="479.5" width="43" height="43" fill="#C4C4C4" stroke="black"/>
<path d="M640.664 500.609L641.648 491.938H651.211V494.762H644.426L644.004 498.43C644.809 498 645.664 497.785 646.57 497.785C648.195 497.785 649.469 498.289 650.391 499.297C651.312 500.305 651.773 501.715 651.773 503.527C651.773 504.629 651.539 505.617 651.07 506.492C650.609 507.359 649.945 508.035 649.078 508.52C648.211 508.996 647.188 509.234 646.008 509.234C644.977 509.234 644.02 509.027 643.137 508.613C642.254 508.191 641.555 507.602 641.039 506.844C640.531 506.086 640.262 505.223 640.23 504.254H643.582C643.652 504.965 643.898 505.52 644.32 505.918C644.75 506.309 645.309 506.504 645.996 506.504C646.762 506.504 647.352 506.23 647.766 505.684C648.18 505.129 648.387 504.348 648.387 503.34C648.387 502.371 648.148 501.629 647.672 501.113C647.195 500.598 646.52 500.34 645.645 500.34C644.84 500.34 644.188 500.551 643.688 500.973L643.359 501.277L640.664 500.609Z" fill="black"/>
<rect x="720.5" y="479.5" width="43" height="43" fill="#C4C4C4" stroke="black"/>
<path d="M745.348 491.762V494.551H745.02C743.488 494.574 742.254 494.973 741.316 495.746C740.387 496.52 739.828 497.594 739.641 498.969C740.547 498.047 741.691 497.586 743.074 497.586C744.559 497.586 745.738 498.117 746.613 499.18C747.488 500.242 747.926 501.641 747.926 503.375C747.926 504.484 747.684 505.488 747.199 506.387C746.723 507.285 746.043 507.984 745.16 508.484C744.285 508.984 743.293 509.234 742.184 509.234C740.387 509.234 738.934 508.609 737.824 507.359C736.723 506.109 736.172 504.441 736.172 502.355V501.137C736.172 499.285 736.52 497.652 737.215 496.238C737.918 494.816 738.922 493.719 740.227 492.945C741.539 492.164 743.059 491.77 744.785 491.762H745.348ZM742.043 500.305C741.496 500.305 741 500.449 740.555 500.738C740.109 501.02 739.781 501.395 739.57 501.863V502.895C739.57 504.027 739.793 504.914 740.238 505.555C740.684 506.188 741.309 506.504 742.113 506.504C742.84 506.504 743.426 506.219 743.871 505.648C744.324 505.07 744.551 504.324 744.551 503.41C744.551 502.48 744.324 501.73 743.871 501.16C743.418 500.59 742.809 500.305 742.043 500.305Z" fill="black"/>
<rect x="417.5" y="406.5" width="43" height="43" fill="#C4C4C4" stroke="black"/>
<path d="M441.082 429.18C440.199 430.047 439.168 430.48 437.988 430.48C436.48 430.48 435.273 429.965 434.367 428.934C433.461 427.895 433.008 426.496 433.008 424.738C433.008 423.621 433.25 422.598 433.734 421.668C434.227 420.73 434.91 420.004 435.785 419.488C436.66 418.965 437.645 418.703 438.738 418.703C439.863 418.703 440.863 418.984 441.738 419.547C442.613 420.109 443.293 420.918 443.777 421.973C444.262 423.027 444.508 424.234 444.516 425.594V426.848C444.516 429.691 443.809 431.926 442.395 433.551C440.98 435.176 438.977 436.043 436.383 436.152L435.551 436.164V433.34L436.301 433.328C439.246 433.195 440.84 431.812 441.082 429.18ZM438.82 427.891C439.367 427.891 439.836 427.75 440.227 427.469C440.625 427.188 440.926 426.848 441.129 426.449V425.055C441.129 423.906 440.91 423.016 440.473 422.383C440.035 421.75 439.449 421.434 438.715 421.434C438.035 421.434 437.477 421.746 437.039 422.371C436.602 422.988 436.383 423.766 436.383 424.703C436.383 425.633 436.594 426.398 437.016 427C437.445 427.594 438.047 427.891 438.82 427.891Z" fill="black"/>
<rect x="468.5" y="261.5" width="43" height="43" fill="#C4C4C4" stroke="black"/>
<path d="M487.18 284.578H489.113V287.309H487.18V291H483.793V287.309H476.797L476.645 285.176L483.758 273.938H487.18V284.578ZM480.02 284.578H483.793V278.555L483.57 278.941L480.02 284.578ZM502.637 291H490.941V288.68L496.461 282.797C497.219 281.969 497.777 281.246 498.137 280.629C498.504 280.012 498.688 279.426 498.688 278.871C498.688 278.113 498.496 277.52 498.113 277.09C497.73 276.652 497.184 276.434 496.473 276.434C495.707 276.434 495.102 276.699 494.656 277.23C494.219 277.754 494 278.445 494 279.305H490.602C490.602 278.266 490.848 277.316 491.34 276.457C491.84 275.598 492.543 274.926 493.449 274.441C494.355 273.949 495.383 273.703 496.531 273.703C498.289 273.703 499.652 274.125 500.621 274.969C501.598 275.812 502.086 277.004 502.086 278.543C502.086 279.387 501.867 280.246 501.43 281.121C500.992 281.996 500.242 283.016 499.18 284.18L495.301 288.27H502.637V291Z" fill="black"/>
<rect x="358.5" y="331.5" width="43" height="43" fill="#C4C4C4" stroke="black"/>
<path d="M375.387 361H372V347.945L367.957 349.199V346.445L375.023 343.914H375.387V361ZM392.543 345.836L385.945 361H382.371L388.98 346.68H380.496V343.938H392.543V345.836Z" fill="black"/>
<rect x="527.5" y="406.5" width="43" height="43" fill="#C4C4C4" stroke="black"/>
<path d="M544.387 436H541V422.945L536.957 424.199V421.445L544.023 418.914H544.387V436ZM559.961 429.578H561.895V432.309H559.961V436H556.574V432.309H549.578L549.426 430.176L556.539 418.938H559.961V429.578ZM552.801 429.578H556.574V423.555L556.352 423.941L552.801 429.578Z" fill="black"/>
<rect x="660.5" y="406.5" width="43" height="43" fill="#C4C4C4" stroke="black"/>
<path d="M677.387 436H674V422.945L669.957 424.199V421.445L677.023 418.914H677.387V436ZM691.168 436H687.781V422.945L683.738 424.199V421.445L690.805 418.914H691.168V436Z" fill="black"/>
<rect x="585.5" y="331.5" width="43" height="43" fill="#C4C4C4" stroke="black"/>
<path d="M605.855 361H594.16V358.68L599.68 352.797C600.438 351.969 600.996 351.246 601.355 350.629C601.723 350.012 601.906 349.426 601.906 348.871C601.906 348.113 601.715 347.52 601.332 347.09C600.949 346.652 600.402 346.434 599.691 346.434C598.926 346.434 598.32 346.699 597.875 347.23C597.438 347.754 597.219 348.445 597.219 349.305H593.82C593.82 348.266 594.066 347.316 594.559 346.457C595.059 345.598 595.762 344.926 596.668 344.441C597.574 343.949 598.602 343.703 599.75 343.703C601.508 343.703 602.871 344.125 603.84 344.969C604.816 345.812 605.305 347.004 605.305 348.543C605.305 349.387 605.086 350.246 604.648 351.121C604.211 351.996 603.461 353.016 602.398 354.18L598.52 358.27H605.855V361ZM608.445 352.609L609.43 343.938H618.992V346.762H612.207L611.785 350.43C612.59 350 613.445 349.785 614.352 349.785C615.977 349.785 617.25 350.289 618.172 351.297C619.094 352.305 619.555 353.715 619.555 355.527C619.555 356.629 619.32 357.617 618.852 358.492C618.391 359.359 617.727 360.035 616.859 360.52C615.992 360.996 614.969 361.234 613.789 361.234C612.758 361.234 611.801 361.027 610.918 360.613C610.035 360.191 609.336 359.602 608.82 358.844C608.312 358.086 608.043 357.223 608.012 356.254H611.363C611.434 356.965 611.68 357.52 612.102 357.918C612.531 358.309 613.09 358.504 613.777 358.504C614.543 358.504 615.133 358.23 615.547 357.684C615.961 357.129 616.168 356.348 616.168 355.34C616.168 354.371 615.93 353.629 615.453 353.113C614.977 352.598 614.301 352.34 613.426 352.34C612.621 352.34 611.969 352.551 611.469 352.973L611.141 353.277L608.445 352.609Z" fill="black"/>
<path d="M407.595 325.476C407.305 326.252 407.699 327.116 408.476 327.405L421.124 332.125C421.9 332.414 422.764 332.02 423.054 331.244C423.343 330.468 422.949 329.604 422.173 329.314L410.93 325.119L415.125 313.876C415.414 313.1 415.02 312.236 414.244 311.946C413.468 311.657 412.604 312.051 412.314 312.827L407.595 325.476ZM454.377 303.635L408.377 324.635L409.623 327.365L455.623 306.365L454.377 303.635Z" fill="black"/>
<path d="M571.554 327.394C572.324 327.088 572.7 326.216 572.394 325.446L567.41 312.9C567.104 312.13 566.232 311.754 565.462 312.06C564.692 312.366 564.316 313.238 564.622 314.008L569.052 325.16L557.9 329.59C557.13 329.896 556.754 330.768 557.06 331.538C557.366 332.308 558.238 332.684 559.008 332.378L571.554 327.394ZM519.406 305.377L570.406 327.377L571.594 324.623L520.594 302.623L519.406 305.377Z" fill="black"/>
<path d="M322.503 398.912C322.454 399.739 323.085 400.449 323.912 400.497L337.389 401.29C338.216 401.339 338.925 400.708 338.974 399.881C339.023 399.054 338.392 398.344 337.565 398.295L325.585 397.591L326.29 385.611C326.339 384.784 325.708 384.075 324.881 384.026C324.054 383.977 323.344 384.608 323.295 385.435L322.503 398.912ZM350.003 373.879L323.003 397.879L324.997 400.121L351.997 376.121L350.003 373.879Z" fill="black"/>
<path d="M423.748 400.479C424.564 400.618 425.339 400.069 425.479 399.252L427.751 385.945C427.89 385.128 427.341 384.353 426.524 384.214C425.708 384.075 424.933 384.624 424.793 385.44L422.774 397.269L410.945 395.249C410.128 395.11 409.353 395.659 409.214 396.476C409.075 397.292 409.624 398.067 410.44 398.207L423.748 400.479ZM405.776 375.867L422.776 399.867L425.224 398.133L408.224 374.133L405.776 375.867Z" fill="black"/>
<path d="M254.506 471.136C254.581 471.961 255.311 472.569 256.136 472.494L269.58 471.272C270.405 471.197 271.013 470.467 270.938 469.642C270.863 468.817 270.134 468.209 269.309 468.284L257.358 469.37L256.272 457.42C256.197 456.595 255.467 455.987 254.642 456.062C253.817 456.137 253.209 456.866 253.284 457.691L254.506 471.136ZM269.848 452.04L254.848 470.04L257.152 471.96L272.152 453.96L269.848 452.04Z" fill="black"/>
<path d="M336.775 472.483C337.594 472.607 338.359 472.044 338.483 471.225L340.505 457.877C340.63 457.058 340.066 456.293 339.247 456.169C338.428 456.045 337.663 456.609 337.539 457.428L335.742 469.292L323.877 467.495C323.058 467.37 322.293 467.934 322.169 468.753C322.045 469.572 322.609 470.337 323.428 470.461L336.775 472.483ZM321.792 452.89L335.792 471.89L338.208 470.11L324.208 451.11L321.792 452.89Z" fill="black"/>
<path d="M400.519 471.239C400.651 472.057 401.421 472.613 402.239 472.481L415.567 470.331C416.384 470.199 416.941 469.429 416.809 468.612C416.677 467.794 415.907 467.238 415.089 467.37L403.242 469.28L401.331 457.433C401.199 456.616 400.429 456.059 399.612 456.191C398.794 456.323 398.238 457.093 398.37 457.911L400.519 471.239ZM413.784 452.122L400.784 470.122L403.216 471.878L416.216 453.878L413.784 452.122Z" fill="black"/>
<path d="M467.912 472.497C468.739 472.546 469.449 471.915 469.497 471.088L470.29 457.611C470.339 456.784 469.708 456.075 468.881 456.026C468.054 455.977 467.344 456.608 467.295 457.435L466.591 469.415L454.611 468.71C453.784 468.661 453.075 469.292 453.026 470.119C452.977 470.946 453.608 471.656 454.435 471.705L467.912 472.497ZM450.879 453.997L466.879 471.997L469.121 470.003L453.121 452.003L450.879 453.997Z" fill="black"/>
<path d="M525.545 471.364C525.746 472.167 526.56 472.656 527.364 472.455L540.461 469.181C541.264 468.98 541.753 468.166 541.552 467.362C541.351 466.558 540.537 466.07 539.733 466.271L528.091 469.181L525.181 457.539C524.98 456.736 524.166 456.247 523.362 456.448C522.558 456.649 522.07 457.463 522.271 458.267L525.545 471.364ZM537.714 450.228L525.714 470.228L528.286 471.772L540.286 451.772L537.714 450.228Z" fill="black"/>
<path d="M586 472.5C586.828 472.5 587.5 471.828 587.5 471V457.5C587.5 456.672 586.828 456 586 456C585.172 456 584.5 456.672 584.5 457.5V469.5H572.5C571.672 469.5 571 470.172 571 471C571 471.828 571.672 472.5 572.5 472.5H586ZM567.939 455.061L584.939 472.061L587.061 469.939L570.061 452.939L567.939 455.061Z" fill="black"/>
<path d="M649.507 471.144C649.587 471.969 650.32 472.573 651.144 472.493L664.582 471.193C665.406 471.113 666.01 470.38 665.93 469.555C665.85 468.731 665.117 468.127 664.293 468.207L652.349 469.362L651.193 457.418C651.113 456.594 650.38 455.99 649.555 456.07C648.731 456.15 648.127 456.883 648.207 457.707L649.507 471.144ZM663.842 453.046L649.842 470.046L652.158 471.954L666.158 454.954L663.842 453.046Z" fill="black"/>
<path d="M735.282 472.473C736.096 472.317 736.629 471.532 736.473 470.718L733.934 457.459C733.778 456.645 732.993 456.112 732.179 456.268C731.365 456.423 730.832 457.209 730.988 458.023L733.245 469.809L721.459 472.066C720.645 472.222 720.112 473.007 720.268 473.821C720.423 474.635 721.209 475.168 722.023 475.012L735.282 472.473ZM706.158 453.241L734.158 472.241L735.842 469.759L707.842 450.759L706.158 453.241Z" fill="black"/>
<path d="M562.521 399.252C562.661 400.069 563.436 400.618 564.252 400.479L577.56 398.207C578.376 398.067 578.925 397.292 578.786 396.476C578.647 395.659 577.872 395.11 577.055 395.249L565.226 397.269L563.207 385.44C563.067 384.624 562.292 384.075 561.476 384.214C560.659 384.353 560.11 385.128 560.249 385.945L562.521 399.252ZM579.776 374.133L562.776 398.133L565.224 399.867L582.224 375.867L579.776 374.133Z" fill="black"/>
<path d="M660.06 400.499C660.888 400.466 661.532 399.768 661.499 398.94L660.959 385.451C660.926 384.623 660.228 383.979 659.4 384.012C658.573 384.045 657.929 384.743 657.962 385.571L658.441 397.561L646.451 398.041C645.623 398.074 644.979 398.772 645.012 399.6C645.045 400.427 645.743 401.071 646.571 401.038L660.06 400.499ZM632.983 376.102L658.983 400.102L661.017 397.898L635.017 373.898L632.983 376.102Z" fill="black"/>
<path d="M444.262 49H440.746V31.9375H444.262V49ZM450.426 36.3203L450.531 37.7852C451.438 36.6523 452.652 36.0859 454.176 36.0859C455.52 36.0859 456.52 36.4805 457.176 37.2695C457.832 38.0586 458.168 39.2383 458.184 40.8086V49H454.797V40.8906C454.797 40.1719 454.641 39.6523 454.328 39.332C454.016 39.0039 453.496 38.8398 452.77 38.8398C451.816 38.8398 451.102 39.2461 450.625 40.0586V49H447.238V36.3203H450.426ZM472.176 42.7773C472.176 44.7305 471.73 46.2969 470.84 47.4766C469.957 48.6484 468.762 49.2344 467.254 49.2344C465.973 49.2344 464.938 48.7891 464.148 47.8984V53.875H460.762V36.3203H463.902L464.02 37.5625C464.84 36.5781 465.91 36.0859 467.23 36.0859C468.793 36.0859 470.008 36.6641 470.875 37.8203C471.742 38.9766 472.176 40.5703 472.176 42.6016V42.7773ZM468.789 42.5312C468.789 41.3516 468.578 40.4414 468.156 39.8008C467.742 39.1602 467.137 38.8398 466.34 38.8398C465.277 38.8398 464.547 39.2461 464.148 40.0586V45.25C464.562 46.0859 465.301 46.5039 466.363 46.5039C467.98 46.5039 468.789 45.1797 468.789 42.5312ZM481.879 47.7109C481.043 48.7266 479.887 49.2344 478.41 49.2344C477.051 49.2344 476.012 48.8438 475.293 48.0625C474.582 47.2812 474.219 46.1367 474.203 44.6289V36.3203H477.59V44.5117C477.59 45.832 478.191 46.4922 479.395 46.4922C480.543 46.4922 481.332 46.0938 481.762 45.2969V36.3203H485.16V49H481.973L481.879 47.7109ZM491.77 33.2031V36.3203H493.938V38.8047H491.77V45.1328C491.77 45.6016 491.859 45.9375 492.039 46.1406C492.219 46.3438 492.562 46.4453 493.07 46.4453C493.445 46.4453 493.777 46.418 494.066 46.3633V48.9297C493.402 49.1328 492.719 49.2344 492.016 49.2344C489.641 49.2344 488.43 48.0352 488.383 45.6367V38.8047H486.531V36.3203H488.383V33.2031H491.77ZM511.656 45.4844H505.492L504.32 49H500.582L506.934 31.9375H510.191L516.578 49H512.84L511.656 45.4844ZM506.441 42.6367H510.707L508.562 36.25L506.441 42.6367ZM525.074 39.4961C524.613 39.4336 524.207 39.4023 523.855 39.4023C522.574 39.4023 521.734 39.8359 521.336 40.7031V49H517.949V36.3203H521.148L521.242 37.832C521.922 36.668 522.863 36.0859 524.066 36.0859C524.441 36.0859 524.793 36.1367 525.121 36.2383L525.074 39.4961ZM533.84 39.4961C533.379 39.4336 532.973 39.4023 532.621 39.4023C531.34 39.4023 530.5 39.8359 530.102 40.7031V49H526.715V36.3203H529.914L530.008 37.832C530.688 36.668 531.629 36.0859 532.832 36.0859C533.207 36.0859 533.559 36.1367 533.887 36.2383L533.84 39.4961ZM542.477 49C542.32 48.6953 542.207 48.3164 542.137 47.8633C541.316 48.7773 540.25 49.2344 538.938 49.2344C537.695 49.2344 536.664 48.875 535.844 48.1562C535.031 47.4375 534.625 46.5312 534.625 45.4375C534.625 44.0938 535.121 43.0625 536.113 42.3438C537.113 41.625 538.555 41.2617 540.438 41.2539H541.996V40.5273C541.996 39.9414 541.844 39.4727 541.539 39.1211C541.242 38.7695 540.77 38.5938 540.121 38.5938C539.551 38.5938 539.102 38.7305 538.773 39.0039C538.453 39.2773 538.293 39.6523 538.293 40.1289H534.906C534.906 39.3945 535.133 38.7148 535.586 38.0898C536.039 37.4648 536.68 36.9766 537.508 36.625C538.336 36.2656 539.266 36.0859 540.297 36.0859C541.859 36.0859 543.098 36.4805 544.012 37.2695C544.934 38.0508 545.395 39.1523 545.395 40.5742V46.0703C545.402 47.2734 545.57 48.1836 545.898 48.8008V49H542.477ZM539.676 46.6445C540.176 46.6445 540.637 46.5352 541.059 46.3164C541.48 46.0898 541.793 45.7891 541.996 45.4141V43.2344H540.73C539.035 43.2344 538.133 43.8203 538.023 44.9922L538.012 45.1914C538.012 45.6133 538.16 45.9609 538.457 46.2344C538.754 46.5078 539.16 46.6445 539.676 46.6445ZM552.543 44.207L554.887 36.3203H558.52L553.422 50.9688L553.141 51.6367C552.383 53.293 551.133 54.1211 549.391 54.1211C548.898 54.1211 548.398 54.0469 547.891 53.8984V51.332L548.406 51.3438C549.047 51.3438 549.523 51.2461 549.836 51.0508C550.156 50.8555 550.406 50.5312 550.586 50.0781L550.984 49.0352L546.543 36.3203H550.188L552.543 44.207Z" fill="black"/>
<path d="M355.371 221.523C355.371 220.859 355.137 220.352 354.668 220C354.199 219.641 353.355 219.266 352.137 218.875C350.918 218.477 349.953 218.086 349.242 217.703C347.305 216.656 346.336 215.246 346.336 213.473C346.336 212.551 346.594 211.73 347.109 211.012C347.633 210.285 348.379 209.719 349.348 209.312C350.324 208.906 351.418 208.703 352.629 208.703C353.848 208.703 354.934 208.926 355.887 209.371C356.84 209.809 357.578 210.43 358.102 211.234C358.633 212.039 358.898 212.953 358.898 213.977H355.383C355.383 213.195 355.137 212.59 354.645 212.16C354.152 211.723 353.461 211.504 352.57 211.504C351.711 211.504 351.043 211.688 350.566 212.055C350.09 212.414 349.852 212.891 349.852 213.484C349.852 214.039 350.129 214.504 350.684 214.879C351.246 215.254 352.07 215.605 353.156 215.934C355.156 216.535 356.613 217.281 357.527 218.172C358.441 219.062 358.898 220.172 358.898 221.5C358.898 222.977 358.34 224.137 357.223 224.98C356.105 225.816 354.602 226.234 352.711 226.234C351.398 226.234 350.203 225.996 349.125 225.52C348.047 225.035 347.223 224.375 346.652 223.539C346.09 222.703 345.809 221.734 345.809 220.633H349.336C349.336 222.516 350.461 223.457 352.711 223.457C353.547 223.457 354.199 223.289 354.668 222.953C355.137 222.609 355.371 222.133 355.371 221.523ZM365.121 210.203V213.32H367.289V215.805H365.121V222.133C365.121 222.602 365.211 222.938 365.391 223.141C365.57 223.344 365.914 223.445 366.422 223.445C366.797 223.445 367.129 223.418 367.418 223.363V225.93C366.754 226.133 366.07 226.234 365.367 226.234C362.992 226.234 361.781 225.035 361.734 222.637V215.805H359.883V213.32H361.734V210.203H365.121ZM376.301 216.496C375.84 216.434 375.434 216.402 375.082 216.402C373.801 216.402 372.961 216.836 372.562 217.703V226H369.176V213.32H372.375L372.469 214.832C373.148 213.668 374.09 213.086 375.293 213.086C375.668 213.086 376.02 213.137 376.348 213.238L376.301 216.496ZM385.535 224.711C384.699 225.727 383.543 226.234 382.066 226.234C380.707 226.234 379.668 225.844 378.949 225.062C378.238 224.281 377.875 223.137 377.859 221.629V213.32H381.246V221.512C381.246 222.832 381.848 223.492 383.051 223.492C384.199 223.492 384.988 223.094 385.418 222.297V213.32H388.816V226H385.629L385.535 224.711ZM396.645 223.504C397.27 223.504 397.777 223.332 398.168 222.988C398.559 222.645 398.762 222.188 398.777 221.617H401.953C401.945 222.477 401.711 223.266 401.25 223.984C400.789 224.695 400.156 225.25 399.352 225.648C398.555 226.039 397.672 226.234 396.703 226.234C394.891 226.234 393.461 225.66 392.414 224.512C391.367 223.355 390.844 221.762 390.844 219.73V219.508C390.844 217.555 391.363 215.996 392.402 214.832C393.441 213.668 394.867 213.086 396.68 213.086C398.266 213.086 399.535 213.539 400.488 214.445C401.449 215.344 401.938 216.543 401.953 218.043H398.777C398.762 217.387 398.559 216.855 398.168 216.449C397.777 216.035 397.262 215.828 396.621 215.828C395.832 215.828 395.234 216.117 394.828 216.695C394.43 217.266 394.23 218.195 394.23 219.484V219.836C394.23 221.141 394.43 222.078 394.828 222.648C395.227 223.219 395.832 223.504 396.645 223.504ZM407.941 210.203V213.32H410.109V215.805H407.941V222.133C407.941 222.602 408.031 222.938 408.211 223.141C408.391 223.344 408.734 223.445 409.242 223.445C409.617 223.445 409.949 223.418 410.238 223.363V225.93C409.574 226.133 408.891 226.234 408.188 226.234C405.812 226.234 404.602 225.035 404.555 222.637V215.805H402.703V213.32H404.555V210.203H407.941ZM419.59 224.711C418.754 225.727 417.598 226.234 416.121 226.234C414.762 226.234 413.723 225.844 413.004 225.062C412.293 224.281 411.93 223.137 411.914 221.629V213.32H415.301V221.512C415.301 222.832 415.902 223.492 417.105 223.492C418.254 223.492 419.043 223.094 419.473 222.297V213.32H422.871V226H419.684L419.59 224.711ZM432.551 216.496C432.09 216.434 431.684 216.402 431.332 216.402C430.051 216.402 429.211 216.836 428.812 217.703V226H425.426V213.32H428.625L428.719 214.832C429.398 213.668 430.34 213.086 431.543 213.086C431.918 213.086 432.27 213.137 432.598 213.238L432.551 216.496ZM439.793 226.234C437.934 226.234 436.418 225.664 435.246 224.523C434.082 223.383 433.5 221.863 433.5 219.965V219.637C433.5 218.363 433.746 217.227 434.238 216.227C434.73 215.219 435.426 214.445 436.324 213.906C437.23 213.359 438.262 213.086 439.418 213.086C441.152 213.086 442.516 213.633 443.508 214.727C444.508 215.82 445.008 217.371 445.008 219.379V220.762H436.934C437.043 221.59 437.371 222.254 437.918 222.754C438.473 223.254 439.172 223.504 440.016 223.504C441.32 223.504 442.34 223.031 443.074 222.086L444.738 223.949C444.23 224.668 443.543 225.23 442.676 225.637C441.809 226.035 440.848 226.234 439.793 226.234ZM439.406 215.828C438.734 215.828 438.188 216.055 437.766 216.508C437.352 216.961 437.086 217.609 436.969 218.453H441.68V218.184C441.664 217.434 441.461 216.855 441.07 216.449C440.68 216.035 440.125 215.828 439.406 215.828ZM452.391 219.543C452.391 218.285 452.633 217.164 453.117 216.18C453.602 215.195 454.297 214.434 455.203 213.895C456.117 213.355 457.176 213.086 458.379 213.086C460.09 213.086 461.484 213.609 462.562 214.656C463.648 215.703 464.254 217.125 464.379 218.922L464.402 219.789C464.402 221.734 463.859 223.297 462.773 224.477C461.688 225.648 460.23 226.234 458.402 226.234C456.574 226.234 455.113 225.648 454.02 224.477C452.934 223.305 452.391 221.711 452.391 219.695V219.543ZM455.777 219.789C455.777 220.992 456.004 221.914 456.457 222.555C456.91 223.188 457.559 223.504 458.402 223.504C459.223 223.504 459.863 223.191 460.324 222.566C460.785 221.934 461.016 220.926 461.016 219.543C461.016 218.363 460.785 217.449 460.324 216.801C459.863 216.152 459.215 215.828 458.379 215.828C457.551 215.828 456.91 216.152 456.457 216.801C456.004 217.441 455.777 218.438 455.777 219.789ZM467.414 226V215.805H465.527V213.32H467.414V212.242C467.414 210.82 467.82 209.719 468.633 208.938C469.453 208.148 470.598 207.754 472.066 207.754C472.535 207.754 473.109 207.832 473.789 207.988L473.754 210.613C473.473 210.543 473.129 210.508 472.723 210.508C471.449 210.508 470.812 211.105 470.812 212.301V213.32H473.332V215.805H470.812V226H467.414ZM490.137 221.523C490.137 220.859 489.902 220.352 489.434 220C488.965 219.641 488.121 219.266 486.902 218.875C485.684 218.477 484.719 218.086 484.008 217.703C482.07 216.656 481.102 215.246 481.102 213.473C481.102 212.551 481.359 211.73 481.875 211.012C482.398 210.285 483.145 209.719 484.113 209.312C485.09 208.906 486.184 208.703 487.395 208.703C488.613 208.703 489.699 208.926 490.652 209.371C491.605 209.809 492.344 210.43 492.867 211.234C493.398 212.039 493.664 212.953 493.664 213.977H490.148C490.148 213.195 489.902 212.59 489.41 212.16C488.918 211.723 488.227 211.504 487.336 211.504C486.477 211.504 485.809 211.688 485.332 212.055C484.855 212.414 484.617 212.891 484.617 213.484C484.617 214.039 484.895 214.504 485.449 214.879C486.012 215.254 486.836 215.605 487.922 215.934C489.922 216.535 491.379 217.281 492.293 218.172C493.207 219.062 493.664 220.172 493.664 221.5C493.664 222.977 493.105 224.137 491.988 224.98C490.871 225.816 489.367 226.234 487.477 226.234C486.164 226.234 484.969 225.996 483.891 225.52C482.812 225.035 481.988 224.375 481.418 223.539C480.855 222.703 480.574 221.734 480.574 220.633H484.102C484.102 222.516 485.227 223.457 487.477 223.457C488.312 223.457 488.965 223.289 489.434 222.953C489.902 222.609 490.137 222.133 490.137 221.523ZM501.668 226.234C499.809 226.234 498.293 225.664 497.121 224.523C495.957 223.383 495.375 221.863 495.375 219.965V219.637C495.375 218.363 495.621 217.227 496.113 216.227C496.605 215.219 497.301 214.445 498.199 213.906C499.105 213.359 500.137 213.086 501.293 213.086C503.027 213.086 504.391 213.633 505.383 214.727C506.383 215.82 506.883 217.371 506.883 219.379V220.762H498.809C498.918 221.59 499.246 222.254 499.793 222.754C500.348 223.254 501.047 223.504 501.891 223.504C503.195 223.504 504.215 223.031 504.949 222.086L506.613 223.949C506.105 224.668 505.418 225.23 504.551 225.637C503.684 226.035 502.723 226.234 501.668 226.234ZM501.281 215.828C500.609 215.828 500.062 216.055 499.641 216.508C499.227 216.961 498.961 217.609 498.844 218.453H503.555V218.184C503.539 217.434 503.336 216.855 502.945 216.449C502.555 216.035 502 215.828 501.281 215.828ZM508.324 219.566C508.324 217.621 508.785 216.055 509.707 214.867C510.637 213.68 511.887 213.086 513.457 213.086C514.848 213.086 515.93 213.562 516.703 214.516L516.844 213.32H519.914V225.578C519.914 226.688 519.66 227.652 519.152 228.473C518.652 229.293 517.945 229.918 517.031 230.348C516.117 230.777 515.047 230.992 513.82 230.992C512.891 230.992 511.984 230.805 511.102 230.43C510.219 230.062 509.551 229.586 509.098 229L510.598 226.938C511.441 227.883 512.465 228.355 513.668 228.355C514.566 228.355 515.266 228.113 515.766 227.629C516.266 227.152 516.516 226.473 516.516 225.59V224.91C515.734 225.793 514.707 226.234 513.434 226.234C511.91 226.234 510.676 225.641 509.73 224.453C508.793 223.258 508.324 221.676 508.324 219.707V219.566ZM511.711 219.812C511.711 220.961 511.941 221.863 512.402 222.52C512.863 223.168 513.496 223.492 514.301 223.492C515.332 223.492 516.07 223.105 516.516 222.332V217C516.062 216.227 515.332 215.84 514.324 215.84C513.512 215.84 512.871 216.172 512.402 216.836C511.941 217.5 511.711 218.492 511.711 219.812ZM525.703 213.32L525.809 214.738C526.707 213.637 527.922 213.086 529.453 213.086C531.086 213.086 532.207 213.73 532.816 215.02C533.707 213.73 534.977 213.086 536.625 213.086C538 213.086 539.023 213.488 539.695 214.293C540.367 215.09 540.703 216.293 540.703 217.902V226H537.305V217.914C537.305 217.195 537.164 216.672 536.883 216.344C536.602 216.008 536.105 215.84 535.395 215.84C534.379 215.84 533.676 216.324 533.285 217.293L533.297 226H529.91V217.926C529.91 217.191 529.766 216.66 529.477 216.332C529.188 216.004 528.695 215.84 528 215.84C527.039 215.84 526.344 216.238 525.914 217.035V226H522.527V213.32H525.703ZM549.152 226.234C547.293 226.234 545.777 225.664 544.605 224.523C543.441 223.383 542.859 221.863 542.859 219.965V219.637C542.859 218.363 543.105 217.227 543.598 216.227C544.09 215.219 544.785 214.445 545.684 213.906C546.59 213.359 547.621 213.086 548.777 213.086C550.512 213.086 551.875 213.633 552.867 214.727C553.867 215.82 554.367 217.371 554.367 219.379V220.762H546.293C546.402 221.59 546.73 222.254 547.277 222.754C547.832 223.254 548.531 223.504 549.375 223.504C550.68 223.504 551.699 223.031 552.434 222.086L554.098 223.949C553.59 224.668 552.902 225.23 552.035 225.637C551.168 226.035 550.207 226.234 549.152 226.234ZM548.766 215.828C548.094 215.828 547.547 216.055 547.125 216.508C546.711 216.961 546.445 217.609 546.328 218.453H551.039V218.184C551.023 217.434 550.82 216.855 550.43 216.449C550.039 216.035 549.484 215.828 548.766 215.828ZM559.418 213.32L559.523 214.785C560.43 213.652 561.645 213.086 563.168 213.086C564.512 213.086 565.512 213.48 566.168 214.27C566.824 215.059 567.16 216.238 567.176 217.809V226H563.789V217.891C563.789 217.172 563.633 216.652 563.32 216.332C563.008 216.004 562.488 215.84 561.762 215.84C560.809 215.84 560.094 216.246 559.617 217.059V226H556.23V213.32H559.418ZM573.809 210.203V213.32H575.977V215.805H573.809V222.133C573.809 222.602 573.898 222.938 574.078 223.141C574.258 223.344 574.602 223.445 575.109 223.445C575.484 223.445 575.816 223.418 576.105 223.363V225.93C575.441 226.133 574.758 226.234 574.055 226.234C571.68 226.234 570.469 225.035 570.422 222.637V215.805H568.57V213.32H570.422V210.203H573.809ZM596.203 211.785H590.977V226H587.461V211.785H582.305V208.938H596.203V211.785ZM604.348 216.496C603.887 216.434 603.48 216.402 603.129 216.402C601.848 216.402 601.008 216.836 600.609 217.703V226H597.223V213.32H600.422L600.516 214.832C601.195 213.668 602.137 213.086 603.34 213.086C603.715 213.086 604.066 213.137 604.395 213.238L604.348 216.496ZM611.59 226.234C609.73 226.234 608.215 225.664 607.043 224.523C605.879 223.383 605.297 221.863 605.297 219.965V219.637C605.297 218.363 605.543 217.227 606.035 216.227C606.527 215.219 607.223 214.445 608.121 213.906C609.027 213.359 610.059 213.086 611.215 213.086C612.949 213.086 614.312 213.633 615.305 214.727C616.305 215.82 616.805 217.371 616.805 219.379V220.762H608.73C608.84 221.59 609.168 222.254 609.715 222.754C610.27 223.254 610.969 223.504 611.812 223.504C613.117 223.504 614.137 223.031 614.871 222.086L616.535 223.949C616.027 224.668 615.34 225.23 614.473 225.637C613.605 226.035 612.645 226.234 611.59 226.234ZM611.203 215.828C610.531 215.828 609.984 216.055 609.562 216.508C609.148 216.961 608.883 217.609 608.766 218.453H613.477V218.184C613.461 217.434 613.258 216.855 612.867 216.449C612.477 216.035 611.922 215.828 611.203 215.828ZM624.574 226.234C622.715 226.234 621.199 225.664 620.027 224.523C618.863 223.383 618.281 221.863 618.281 219.965V219.637C618.281 218.363 618.527 217.227 619.02 216.227C619.512 215.219 620.207 214.445 621.105 213.906C622.012 213.359 623.043 213.086 624.199 213.086C625.934 213.086 627.297 213.633 628.289 214.727C629.289 215.82 629.789 217.371 629.789 219.379V220.762H621.715C621.824 221.59 622.152 222.254 622.699 222.754C623.254 223.254 623.953 223.504 624.797 223.504C626.102 223.504 627.121 223.031 627.855 222.086L629.52 223.949C629.012 224.668 628.324 225.23 627.457 225.637C626.59 226.035 625.629 226.234 624.574 226.234ZM624.188 215.828C623.516 215.828 622.969 216.055 622.547 216.508C622.133 216.961 621.867 217.609 621.75 218.453H626.461V218.184C626.445 217.434 626.242 216.855 625.852 216.449C625.461 216.035 624.906 215.828 624.188 215.828Z" fill="black"/>
</svg>
